#tb 0: 1/16
#tb 1: 1/22050
0,          0,          0,        1,    28800, 0x026058a9
1,          0,          0,     1378,     2756, 0x0af35034
1,       1378,       1378,     1378,     2756, 0x8462443f
0,          1,          1,        1,    28800, 0x5dc728de
1,       2756,       2756,     1378,     2756, 0x9f493ba6
0,          2,          2,        1,    28800, 0x83e19a2c
1,       4134,       4134,     1378,     2756, 0x634e5f06
0,          3,          3,        1,    28800, 0xb029f94a
1,       5512,       5512,     1380,     2760, 0x51f35cd4
0,          4,          4,        1,    28800, 0x735a6b15
0,          5,          5,        1,    28800, 0xf7e9dc8b
1,       6891,       6891,     1378,     2756, 0x011c51e5
0,          6,          6,        1,    28800, 0xa108b0cf
1,       8269,       8269,     1378,     2756, 0x8c2c198c
0,          7,          7,        1,    28800, 0x3d11c138
1,       9647,       9647,     1378,     2756, 0x2b4a3397
0,          8,          8,        1,    28800, 0xed23afda
1,      11025,      11025,     1378,     2756, 0x63794f22
1,      12403,      12403,     1378,     2756, 0xfc363898
0,          9,          9,        1,    28800, 0x713bb2dc
1,      13781,      13781,     1378,     2756, 0x0da5486e
0,         10,         10,        1,    28800, 0x551ad51e
1,      15159,      15159,     1378,     2756, 0xbae17a5f
0,         11,         11,        1,    28800, 0x49dfcf2d
0,         12,         12,        1,    28800, 0x6399d5b3
1,      16538,      16538,     1380,     2760, 0xba266e1b
0,         13,         13,        1,    28800, 0x520ad812
1,      17916,      17916,     1378,     2756, 0xdfb61002
0,         14,         14,        1,    28800, 0xc46ad9da
1,      19294,      19294,     1378,     2756, 0x15d029da
0,         15,         15,        1,    28800, 0xe79edb9e
1,      20672,      20672,     1378,     2756, 0x7bc82012
0,         16,         16,        1,    28800, 0xdb1acb30
1,      22050,      22050,     1378,     2756, 0x002e6999
1,      23428,      23428,     1378,     2756, 0x96346ba6
0,         17,         17,        1,    28800, 0x050fb669
1,      24806,      24806,     1378,     2756, 0x3d54543b
0,         18,         18,        1,    28800, 0x096ca687
1,      26184,      26184,     1380,     2760, 0x601786e1
0,         19,         19,        1,    28800, 0x0054a6bd
1,      27562,      27562,     1378,     2756, 0xf22a5793
0,         20,         20,        1,    28800, 0x6d7daad2
0,         21,         21,        1,    28800, 0x9c10a9dc
1,      28941,      28941,     1378,     2756, 0x21f54d49
0,         22,         22,        1,    28800, 0x89b1a623
1,      30319,      30319,     1378,     2756, 0x0c6d4399
0,         23,         23,        1,    28800, 0xa0a19c3f
1,      31697,      31697,     1378,     2756, 0x17282f8e
0,         24,         24,        1,    28800, 0x26c898ad
1,      33075,      33075,     1378,     2756, 0xeb698f75
1,      34453,      34453,     1378,     2756, 0x935e1de2
0,         25,         25,        1,    28800, 0x6f639dae
1,      35831,      35831,     1380,     2760, 0xb6fb4293
0,         26,         26,        1,    28800, 0xa173a9b5
1,      37209,      37209,     1378,     2756, 0x485053dc
0,         27,         27,        1,    28800, 0xa309aa08
0,         28,         28,        1,    28800, 0x2059b6c4
1,      38588,      38588,     1378,     2756, 0x24c35027
0,         29,         29,        1,    28800, 0x5ae8c761
1,      39966,      39966,     1378,     2756, 0x09f323ee
0,         30,         30,        1,    28800, 0xb780c9c5
1,      41344,      41344,     1378,     2756, 0xbc7d58d5
0,         31,         31,        1,    28800, 0xf58ac8fe
1,      42722,      42722,     1378,     2756, 0xaefd487c
0,         32,         32,        1,    28800, 0x9bb307e7
1,      44100,      44100,     1378,     2756, 0xaca16cc0
1,      45478,      45478,     1380,     2760, 0x98a76091
0,         33,         33,        1,    28800, 0xd32c3e81
1,      46856,      46856,     1378,     2756, 0x5d357141
0,         34,         34,        1,    28800, 0x4edd51d2
1,      48234,      48234,     1378,     2756, 0x65ea2657
0,         35,         35,        1,    28800, 0x5a88684d
1,      49612,      49612,     1378,     2756, 0xb5e1334a
0,         36,         36,        1,    28800, 0x5bd97f0e
0,         37,         37,        1,    28800, 0x36d67843
1,      50991,      50991,     1378,     2756, 0x32cd5d91
0,         38,         38,        1,    28800, 0x0e18781d
1,      52369,      52369,     1378,     2756, 0xdc23722b
0,         39,         39,        1,    28800, 0xa3168807
1,      53747,      53747,     1378,     2756, 0x2ba34684
0,         40,         40,        1,    28800, 0xa7c575b8
1,      55125,      55125,     1378,     2756, 0xf9755ba8
1,      56503,      56503,     1380,     2760, 0x24221ddb
0,         41,         41,        1,    28800, 0x86367c37
1,      57881,      57881,     1378,     2756, 0xef843aa4
0,         42,         42,        1,    28800, 0xb0f79180
1,      59259,      59259,     1378,     2756, 0x420442fe
0,         43,         43,        1,    28800, 0x61da8c0f
0,         44,         44,        1,    28800, 0x9b11948a
1,      60638,      60638,     1378,     2756, 0x5a0933cb
0,         45,         45,        1,    28800, 0xc53d9b44
1,      62016,      62016,     1378,     2756, 0xef5f6d61
0,         46,         46,        1,    28800, 0xdc699185
1,      63394,      63394,     1378,     2756, 0xe57e6dc0
0,         47,         47,        1,    28800, 0x7b4f92b5
1,      64772,      64772,     1378,     2756, 0xc0f0495a
0,         48,         48,        1,    28800, 0x40469065
1,      66150,      66150,     1380,     2760, 0x2c3b55df
1,      67528,      67528,     1378,     2756, 0x39c2586c
0,         49,         49,        1,    28800, 0x737ea07e
1,      68906,      68906,     1378,     2756, 0x7ffc46e5
0,         50,         50,        1,    28800, 0x0db49c8b
1,      70284,      70284,     1378,     2756, 0xa2766664
0,         51,         51,        1,    28800, 0x39249f10
1,      71662,      71662,     1378,     2756, 0xacb50c6c
0,         52,         52,        1,    28800, 0xc182ab99
0,         53,         53,        1,    28800, 0xd8f7a7c9
1,      73041,      73041,     1378,     2756, 0x7f659084
0,         54,         54,        1,    28800, 0x46789caa
1,      74419,      74419,     1378,     2756, 0xc72e6a12
0,         55,         55,        1,    28800, 0x4759a374
1,      75797,      75797,     1380,     2760, 0xdb6944df
0,         56,         56,        1,    28800, 0xe621b16a
1,      77175,      77175,     1378,     2756, 0x954f45c1
1,      78553,      78553,     1378,     2756, 0xa9484240
0,         57,         57,        1,    28800, 0xcf47a999
1,      79931,      79931,     1378,     2756, 0x1d595349
0,         58,         58,        1,    28800, 0x801dacd4
1,      81309,      81309,     1378,     2756, 0xcf2a565e
0,         59,         59,        1,    28800, 0xe580af51
0,         60,         60,        1,    28800, 0x03d7a887
1,      82688,      82688,     1378,     2756, 0x391028d5
0,         61,         61,        1,    28800, 0xa67ea51d
1,      84066,      84066,     1378,     2756, 0x348db7ad
0,         62,         62,        1,    28800, 0x9fee0ec8
1,      85444,      85444,     1380,     2760, 0xb69b5e3a
0,         63,         63,        1,    28800, 0x7f602a5e
1,      86822,      86822,     1378,     2756, 0xe3635fbe
0,         64,         64,        1,    28800, 0x100d432a
1,      88200,      88200,     1378,     2756, 0xdcad3654
1,      89578,      89578,     1378,     2756, 0x5c17abef
0,         65,         65,        1,    28800, 0x42164dfb
1,      90956,      90956,     1378,     2756, 0xb3235184
0,         66,         66,        1,    28800, 0x86c05196
1,      92334,      92334,     1378,     2756, 0xdabb64a6
0,         67,         67,        1,    28800, 0xfc225938
1,      93712,      93712,     1378,     2756, 0xa95dc58d
0,         68,         68,        1,    28800, 0x81085e87
0,         69,         69,        1,    28800, 0xaa8f5d0a
1,      95091,      95091,     1380,     2760, 0x8e7ac9eb
0,         70,         70,        1,    28800, 0x605a5f9f
1,      96469,      96469,     1378,     2756, 0x492b658e
0,         71,         71,        1,    28800, 0x68dc64b2
1,      97847,      97847,     1378,     2756, 0x377483ab
0,         72,         72,        1,    28800, 0xd08e710b
1,      99225,      99225,     1378,     2756, 0x2c250279
1,     100603,     100603,     1378,     2756, 0x704dbdb3
0,         73,         73,        1,    28800, 0xf8567939
1,     101981,     101981,     1378,     2756, 0x800d7da2
0,         74,         74,        1,    28800, 0x8dad7a4f
1,     103359,     103359,     1378,     2756, 0x872aa32e
0,         75,         75,        1,    28800, 0x1a19813c
0,         76,         76,        1,    28800, 0x8a157f0e
1,     104738,     104738,     1378,     2756, 0x2d4837fe
0,         77,         77,        1,    28800, 0xa4fa7b9d
1,     106116,     106116,     1380,     2760, 0xc89ea57e
0,         78,         78,        1,    28800, 0x093b7b36
1,     107494,     107494,     1378,     2756, 0x6447d7ef
0,         79,         79,        1,    28800, 0xa925755b
1,     108872,     108872,     1378,     2756, 0x144f59cc
0,         80,         80,        1,    28800, 0xa5968138
1,     110250,     110250,     1378,     2756, 0xc667154e
1,     111628,     111628,     1378,     2756, 0xf0de66ae
0,         81,         81,        1,    28800, 0xe00877ac
1,     113006,     113006,     1378,     2756, 0xeabf3c32
0,         82,         82,        1,    28800, 0xd736183e
1,     114384,     114384,     1378,     2756, 0xe98e81d1
0,         83,         83,        1,    28800, 0x356f2068
1,     115762,     115762,     1380,     2760, 0x56aa5889
0,         84,         84,        1,    28800, 0xf9a50f22
0,         85,         85,        1,    28800, 0x92df2ae8
1,     117141,     117141,     1378,     2756, 0x4fd34c0e
0,         86,         86,        1,    28800, 0x67a43dc8
1,     118519,     118519,     1378,     2756, 0x67cf6912
0,         87,         87,        1,    28800, 0xf8ce2ead
1,     119897,     119897,     1378,     2756, 0xfa944def
0,         88,         88,        1,    28800, 0xf42f37ee
1,     121275,     121275,     1378,     2756, 0xc12f23b2
1,     122653,     122653,     1378,     2756, 0x5ea325a2
0,         89,         89,        1,    28800, 0x03611f37
1,     124031,     124031,     1378,     2756, 0x2b245824
0,         90,         90,        1,    28800, 0xddda2327
1,     125409,     125409,     1380,     2760, 0x90ac533e
0,         91,         91,        1,    28800, 0xdf073d85
0,         92,         92,        1,    28800, 0xa8331fee
1,     126788,     126788,     1378,     2756, 0xcca34d26
0,         93,         93,        1,    28800, 0x59d3490a
1,     128166,     128166,     1378,     2756, 0xb5f820d0
0,         94,         94,        1,    28800, 0xa8335be6
1,     129544,     129544,     1378,     2756, 0x27f24335
0,         95,         95,        1,    28800, 0xd5483b43
1,     130922,     130922,     1378,     2756, 0x4a9e87b7
0,         96,         96,        1,    28800, 0x23422dc9
1,     132300,     132300,     1378,     2756, 0xbd076129
1,     133678,     133678,     1378,     2756, 0x2e0e3f2e
0,         97,         97,        1,    28800, 0xc04e4689
1,     135056,     135056,     1380,     2760, 0xdf534478
0,         98,         98,        1,    28800, 0xd4d96372
1,     136434,     136434,     1378,     2756, 0xca000a2e
0,         99,         99,        1,    28800, 0x9c814e96
1,     137812,     137812,     1378,     2756, 0x87472df3
0,        100,        100,        1,    28800, 0x7c4b5d3b
0,        101,        101,        1,    28800, 0x6bf66c04
1,     139191,     139191,     1378,     2756, 0x16733810
0,        102,        102,        1,    28800, 0x6e8d4bb6
1,     140569,     140569,     1378,     2756, 0xfa0734b4
0,        103,        103,        1,    28800, 0xad964d00
1,     141947,     141947,     1378,     2756, 0x5eff3fc4
0,        104,        104,        1,    28800, 0x1ff36bd1
1,     143325,     143325,     1378,     2756, 0xf35346bd
1,     144703,     144703,     1378,     2756, 0xac6411c5
0,        105,        105,        1,    28800, 0xa4664c76
1,     146081,     146081,     1380,     2760, 0x478c3c56
0,        106,        106,        1,    28800, 0x50626d82
1,     147459,     147459,     1378,     2756, 0xebd30bdd
0,        107,        107,        1,    28800, 0x81906c5c
0,        108,        108,        1,    28800, 0x5060543f
1,     148838,     148838,     1378,     2756, 0xaef95a31
0,        109,        109,        1,    28800, 0x231c5a86
1,     150216,     150216,     1378,     2756, 0x8aad29d1
0,        110,        110,        1,    28800, 0x79775d48
1,     151594,     151594,     1378,     2756, 0x626863f0
0,        111,        111,        1,    28800, 0xbb893571
1,     152972,     152972,     1378,     2756, 0x68c05707
0,        112,        112,        1,    28800, 0x794c49ed
1,     154350,     154350,     1378,     2756, 0x437c5e8d
1,     155728,     155728,     1380,     2760, 0x8eca4bdb
0,        113,        113,        1,    28800, 0x70464bac
1,     157106,     157106,     1378,     2756, 0x62bd4162
0,        114,        114,        1,    28800, 0xe79549ce
1,     158484,     158484,     1378,     2756, 0x9f744aa4
0,        115,        115,        1,    28800, 0xa6565555
1,     159862,     159862,     1378,     2756, 0x0f3f6409
0,        116,        116,        1,    28800, 0x2ef1ad6d
0,        117,        117,        1,    28800, 0xdd22b9aa
1,     161241,     161241,     1378,     2756, 0x3fee827a
0,        118,        118,        1,    28800, 0x26ebaa97
1,     162619,     162619,     1378,     2756, 0x48a0ac19
0,        119,        119,        1,    28800, 0x32bd979e
1,     163997,     163997,     1378,     2756, 0x8e4ce0d0
0,        120,        120,        1,    28800, 0x4c167c9a
1,     165375,     165375,     1380,     2760, 0xcda82236
1,     166753,     166753,     1378,     2756, 0x0e523255
0,        121,        121,        1,    28800, 0xfdf76051
1,     168131,     168131,     1378,     2756, 0x84103d30
0,        122,        122,        1,    28800, 0x966938a8
1,     169509,     169509,     1378,     2756, 0x13941cde
0,        123,        123,        1,    28800, 0xcea3fbde
0,        124,        124,        1,    28800, 0x29a0c213
1,     170888,     170888,     1378,     2756, 0x9fc834c5
0,        125,        125,        1,    28800, 0x5633a1c2
1,     172266,     172266,     1378,     2756, 0xc0217a77
0,        126,        126,        1,    28800, 0xdc0b9af8
1,     173644,     173644,     1378,     2756, 0x3f643659
0,        127,        127,        1,    28800, 0x92138848
1,     175022,     175022,     1380,     2760, 0x9dbd6002
0,        128,        128,        1,    28800, 0xd7308da5
1,     176400,     176400,     1378,     2756, 0x94f046fb
1,     177778,     177778,     1378,     2756, 0xab01fb12
0,        129,        129,        1,    28800, 0x0c8f9b3f
1,     179156,     179156,     1378,     2756, 0x04cffe5c
0,        130,        130,        1,    28800, 0xd059b5d1
1,     180534,     180534,     1378,     2756, 0xef661c5e
0,        131,        131,        1,    28800, 0xba6ed9cd
1,     181912,     181912,     1378,     2756, 0x094c5fc5
0,        132,        132,        1,    28800, 0x896c1064
0,        133,        133,        1,    28800, 0x986e2fc9
1,     183291,     183291,     1378,     2756, 0xe0c1486a
0,        134,        134,        1,    28800, 0xcba94e4b
1,     184669,     184669,     1380,     2760, 0x8c3535b7
0,        135,        135,        1,    28800, 0xf3e778ed
1,     186047,     186047,     1378,     2756, 0x594934aa
0,        136,        136,        1,    28800, 0xc6cd7d48
1,     187425,     187425,     1378,     2756, 0x74007238
1,     188803,     188803,     1378,     2756, 0x61f1394d
0,        137,        137,        1,    28800, 0xd9bd84d8
1,     190181,     190181,     1378,     2756, 0x72584f07
0,        138,        138,        1,    28800, 0x391197b4
1,     191559,     191559,     1378,     2756, 0xced9acf9
0,        139,        139,        1,    28800, 0xf361a1d9
0,        140,        140,        1,    28800, 0x9a1ea54e
1,     192938,     192938,     1378,     2756, 0x7d2e3ea1
0,        141,        141,        1,    28800, 0x551aab57
1,     194316,     194316,     1378,     2756, 0x56c06897
0,        142,        142,        1,    28800, 0x3af8577d
1,     195694,     195694,     1380,     2760, 0x19983bbf
0,        143,        143,        1,    28800, 0x10f76ed0
1,     197072,     197072,     1378,     2756, 0x4f884f27
0,        144,        144,        1,    28800, 0x026a7fde
1,     198450,     198450,     1378,     2756, 0x81ab2f63
1,     199828,     199828,     1378,     2756, 0x448e681d
0,        145,        145,        1,    28800, 0x3e0e8db8
1,     201206,     201206,     1378,     2756, 0x0ba9826e
0,        146,        146,        1,    28800, 0x22998d2d
1,     202584,     202584,     1378,     2756, 0x049f36fa
0,        147,        147,        1,    28800, 0x05978b12
1,     203962,     203962,     1378,     2756, 0x096a2b62
0,        148,        148,        1,    28800, 0x38b88294
0,        149,        149,        1,    28800, 0x2ef677d6
1,     205341,     205341,     1380,     2760, 0x579e2035
0,        150,        150,        1,    28800, 0x0b9a8894
1,     206719,     206719,     1378,     2756, 0xd13e30e1
0,        151,        151,        1,    28800, 0x2dcb6718
1,     208097,     208097,     1378,     2756, 0x30b6412b
0,        152,        152,        1,    28800, 0xa31b6679
1,     209475,     209475,     1378,     2756, 0xbb1c3268
1,     210853,     210853,     1378,     2756, 0xbc175b6a
0,        153,        153,        1,    28800, 0x262d6a50
1,     212231,     212231,     1378,     2756, 0xf8d160e2
0,        154,        154,        1,    28800, 0xff3d6d0d
1,     213609,     213609,     1378,     2756, 0xc1048154
0,        155,        155,        1,    28800, 0x159d7045
0,        156,        156,        1,    28800, 0xf0df7800
1,     214988,     214988,     1380,     2760, 0xb83548f4
0,        157,        157,        1,    28800, 0xbe825ea5
1,     216366,     216366,     1378,     2756, 0x22647962
0,        158,        158,        1,    28800, 0x80e25d5a
1,     217744,     217744,     1378,     2756, 0x14ca54d3
0,        159,        159,        1,    28800, 0x8cbe263f
1,     219122,     219122,     1378,     2756, 0x58754b3a
